<?xml version="1.0" encoding="utf-8"?>
<!-- Generator: Adobe Illustrator 23.0.0, SVG Export Plug-In . SVG Version: 6.00 Build 0)  -->
<svg version="1.1" id="pluma" xmlns="http://www.w3.org/2000/svg" xmlns:xlink="http://www.w3.org/1999/xlink" x="0px" y="0px"
	 viewBox="0 0 300 300" style="enable-background:new 0 0 300 300;" xml:space="preserve">
<g id="puntos">
	<g>
		<path d="M292.62,27.01c-1.31,5.36-2.02,10.85-3.85,16.1c-7.54,21.7-22.1,37.3-41.85,48.45c-2.08,1.18-4.2,0.36-6.28,0.17
			c-3.4-0.31-6.78-0.81-10.24-0.97c2.44,2.1,5.7,2.35,8.69,4.14c-4.36,2.28-8.49,4.41-12.59,6.6c-8.3,4.45-16.68,8.81-24.17,14.58
			c-6.34,4.89-11.72,10.67-15.41,17.86c-0.62,1.2-1.38,1.59-2.66,1.87c-5.53,1.2-11.07,2.4-16.42,4.3c-0.85,0.3-1.69,0.64-2.4,1.41
			c6.73-1.1,13.45-2.19,20.18-3.29c-5.63,3.96-11.89,6.58-18.98,9.59c5.25-0.4,9.41-1.82,13.77-2.66
			c-10.34,26.35-28.72,41.92-57.83,43.51c0.17,0.31,0.34,0.63,0.5,0.94c3.93-0.41,7.88-0.67,11.78-1.29
			c3.99-0.63,7.92-1.62,11.98-2.23c-6.19,4.52-12.93,8.05-19.85,11.22c-6.91,3.17-14.1,5.5-21.63,6.79
			c8.69,0.59,16.91-1.79,25.46-4.2c-4.76,3.69-19.3,8.35-28.74,9.27c2.57,1.68,5.36,1.83,7.95,2.99c-1.7,0-3.4,0.07-5.09-0.02
			c-1.77-0.09-3.54-0.32-5.7-0.53c2.55,3.63,5.92,5.69,9.04,8.09c-4.5-0.69-8.26-2.84-11.83-6.24c0.48,3.42,2.18,5.92,3.42,9.35
			c-2.87-2.45-4.49-5.04-6.73-7.73c0,4.23,0,7.97,0,12.38c-1.81-4.64-2.13-9.18-4.72-13.3c-3.47,6.94-8.28,13.34-8.54,20.8
			c-0.24,6.73-3.71,10.78-7.55,15.19c-3.39,3.89-6.03,8.32-8.88,12.59c-0.46,0.69-0.88,1.55-0.92,2.36
			c-0.21,4.38-3.29,6.28-7.79,6.23c-9.57-0.12-18.89-2.06-28.17-4.21c-3.96-0.92-7.86-2.06-11.47-3.99
			c-6.25-3.33-6.42-6.55-0.42-10.4c6.98-4.48,14.85-6.45,22.92-7.73c3.36-0.53,6.72-0.99,10.15-0.44
			c-5.71,0.71-11.39,1.49-16.93,3.05c-3.62,1.02-7.1,2.39-10.22,4.51c-5.25,3.57-5.02,6.8,0.68,9.5c4.78,2.27,9.91,3.37,15.07,4.29
			c5.47,0.97,10.96,1.96,16.57,1.67c2.72-0.14,4.36-0.98,5.14-4.07c11.62-46.39,35.17-85.9,68.41-120.13
			c26.91-27.72,58.73-47.58,94.12-62.26c11.15-4.63,22.28-9.33,33.41-14.02c1.07-0.45,2.08-1.07,2.96-2.01
			c-4.38,1.58-8.8,3.04-13.12,4.77c-21.06,8.39-42.26,16.6-61.91,28.01c-37.33,21.68-67.64,50.84-91.07,87.13
			c-5.4,8.36-10.77,16.76-15.05,25.76c-1.46,3.07-3.24,4.18-6.4,3.64c-1.14-0.2-2.32-0.21-3.48-0.69c1.73-0.14,3.46-0.27,6.18-0.48
			c-7-3.77-13.3-7.17-16.5-15.18c5.38,3.82,10.45,6.47,16.9,8.27c-4.96-4.2-8.57-8.44-11.01-13.6c-2.42-5.12-3.53-10.49-3.38-16.28
			c4.67,8.82,11.55,15.55,19.93,22.02c-1.25-4.98-2.3-9.19-3.35-13.4c0.14-0.06,0.28-0.13,0.41-0.19c1.56,2.9,3.12,5.81,4.69,8.71
			c0.7-10.11-1.21-19.72-4.46-29.15c3.72,4.23,6.07,9.2,8.65,14.12c-0.36-7.34-1.26-14.62-0.2-22.81c0.73,3.75,1.29,6.64,1.86,9.54
			c0.12-15.18,4.28-29.05,13.09-42.11c0.5,1.41,0.22,2.26,0.03,3.12c-0.18,0.82-0.31,1.65-0.23,2.64
			c7.63-14.94,19.59-25.14,34.44-32.32c-8.4,9.61-14.42,20.28-15.57,33.27c1.2-2.7,2.42-5.38,3.58-8.09
			c10.45-24.29,29.16-38.03,54.71-43.39c12.76-2.68,25.74-4.21,38.35-7.64c4.71-1.28,9.38-2.67,13.91-4.55
			c0.49,1.35-1.14,1.93-0.71,3.08c0.19-0.09,0.43-0.12,0.5-0.24c2.92-5.35,8.16-6.97,13.48-8.78c7.86-2.66,15.66-5.59,23.36-10.45
			c-0.84,2.29-1.44,3.93-2.08,5.66c0.27-0.04,0.5-0.02,0.54-0.1c1.92-4,4.93-6.27,9.19-8.02c9.23-3.8,14.47-11.69,18.27-20.61
			c0.69-1.63,0.84-3.5,2.1-4.89C292.62,23.58,292.62,25.3,292.62,27.01z M160.44,118.7c-0.88-0.08-1.14-0.19-1.26-0.1
			c-0.69,0.5-1.36,1.04-2.03,1.57c-22.26,17.71-41.48,38.31-58.18,61.3c-13.1,18.03-22.78,37.88-30.99,58.5
			c-0.52,1.31-1.99,3.25-0.08,4.27c1.63,0.87,2.87-0.96,3.95-2.08c2.88-2.99,4.45-6.76,5.97-10.53
			c7.34-18.21,16.31-35.57,27.61-51.65c13.66-19.43,30.06-36.5,46.71-53.33C154.72,124.03,157.45,121.55,160.44,118.7z"/>
		<path d="M194.3,211c2.12-0.26,3.47-0.13,4.82,0.3c2.21,0.71,4.47,1.54,4.63,4.23c0.16,2.49-1.46,4.15-3.56,5.28
			c-6,3.23-12.47,5.13-19.16,6.08c-13.06,1.86-26.06,1.05-38.91-1.88c-1.86-0.42-3.7-1.11-5.39-2c-4.59-2.42-5.1-5.79-1.59-9.57
			c2.15-2.32,4.85-3.83,7.65-5.21c7.03-3.48,14.66-4.64,22.3-5.54c12.03-1.42,24.12-2.19,36.23-1.93
			c15.14,0.32,30.14,1.64,44.33,7.58c2.97,1.24,5.88,2.6,8.52,4.45c7,4.89,6.92,10.6-0.25,15.17c-6.23,3.98-13.28,5.83-20.38,7.42
			c-15.41,3.43-31.11,4.66-46.8,5.67c-27.7,1.8-55.45,2.42-83.21,1.98c-2.56-0.04-5.15,0.1-7.8-0.9
			c15.52-0.41,30.89-0.31,46.24-0.89c21.51-0.81,43.05-1.29,64.42-4.05c13.46-1.73,26.88-3.86,39.63-8.85
			c2.7-1.06,5.33-2.24,7.48-4.25c3.06-2.87,3.12-5.28,0.03-8.18c-3.49-3.28-7.79-5.25-12.18-6.99c-12.94-5.11-26.56-6.52-40.29-6.83
			c-15.97-0.36-31.91,0.44-47.6,3.75c-5.35,1.13-10.49,3.03-14.96,6.34c-4.94,3.65-4.52,7.23,1.17,9.64
			c4.17,1.77,8.63,2.43,13.1,2.95c12.76,1.47,25.43,1.19,37.9-2.26c3-0.83,5.92-1.88,8.45-3.75c3.04-2.24,2.88-4.35-0.45-6
			C197.48,212.16,196.17,211.74,194.3,211z"/>
	</g>
</g>
</svg>
