<?xml version="1.0" encoding="utf-8"?>
<!-- Generator: Adobe Illustrator 23.0.0, SVG Export Plug-In . SVG Version: 6.00 Build 0)  -->
<svg version="1.1" xmlns="http://www.w3.org/2000/svg" xmlns:xlink="http://www.w3.org/1999/xlink" x="0px" y="0px"
	 viewBox="0 0 300 300" style="enable-background:new 0 0 300 300;" xml:space="preserve">
<style type="text/css">
	.st0{display:none;}
</style>
<g id="Capa_2" class="st0">
</g>
<g id="Capa_3">
	<g>
		<path d="M47.71,226.18c-0.21,0.16-0.56,0.39-0.86,0.68c-5.57,5.3-11.11,10.62-16.7,15.89c-2.42,2.28-4.89,4.49-7.41,6.65
			c-2.19,1.88-5.22,1.7-7.21-0.3c-2.11-2.13-2.21-5.33,0.08-7.58c4.8-4.73,9.72-9.34,14.62-13.97c3.34-3.16,6.77-6.24,10.08-9.43
			c0.4-0.38,0.65-1.54,0.38-1.89c-3.64-4.85-4.92-10.59-6.36-16.63c-2.54,0-5.08,0.02-7.62,0c-4.23-0.04-6.46-1.73-6.49-4.89
			c-0.03-3.06,2.42-4.97,6.44-5c2.3-0.01,4.6,0,6.76,0c0.87-4.22,1.29-8.35,2.59-12.16c5.37-15.68,15.77-26.63,31.45-32.33
			c15.18-5.51,29.94-4.28,44.11,3.28c8.64,4.61,15.49,11.19,19.97,20.02c1.75,3.46,3.45,6.94,5.27,10.62
			c8.18-5.6,16.9-5.49,25.94-0.01c3.41-13.11,11.39-22.87,22.68-29.69c10.68-6.45,22.48-8.77,34.96-7.1
			c20.92,2.8,42.87,19.52,44.53,47.33c2.61,0,5.24-0.04,7.87,0.01c2.81,0.06,4.93,2.03,5.14,4.67c0.21,2.66-1.56,4.8-4.6,5.11
			c-2.96,0.31-5.95,0.31-8.41,0.42c-2.34,5.73-4.64,11.2-6.74,16.74c-0.23,0.61,0.48,1.86,1.09,2.46
			c5.37,5.22,10.81,10.38,16.25,15.53c2.22,2.1,4.49,4.14,6.76,6.19c2.88,2.6,3.15,5.58,0.72,8.28c-2.01,2.23-5.92,2.36-8.34,0.08
			c-6.51-6.15-12.93-12.38-19.41-18.55c-1.46-1.39-3.03-2.67-4.68-4.12c-0.49,0.33-1.01,0.58-1.42,0.95
			c-13.95,12.7-30.28,16.66-48.51,12.78c-10.8-2.3-19.68-7.95-27.22-16.17c-7.38-8.06-11.11-17.46-12.02-28.04
			c-0.54-6.32-6.74-11.05-11.43-11.08c-6.45-0.04-10.86,4.11-12.06,10.59c-1.02,5.5-2.05,11.24-4.47,16.19
			c-8.07,16.48-21.37,26.56-39.67,29.24c-14.77,2.16-28.38-1-40.29-10.38C51.65,229.09,49.73,227.7,47.71,226.18z M43.97,191.15
			c-0.23,8.3,3.17,20.04,10.09,26.77c4.4,4.28,8.86,8.22,14.63,10.53c14.62,5.85,28.58,4.75,41.62-4.19
			c7.3-5,12.8-11.55,15.34-20.29c4.04-13.91,2.14-26.51-7.51-37.73c-7.28-8.46-16.43-13.32-27.4-14.48
			c-16.05-1.7-29.22,4.13-39.21,16.63C46.21,175.05,43.97,183.06,43.97,191.15z M213.05,150.92c-4.41,0.88-8.94,1.41-13.22,2.72
			c-15.2,4.66-24.22,15.4-28.13,30.41c-2.25,8.63-0.82,17.21,3.64,24.92c2.57,4.44,5.55,8.98,9.35,12.33
			c8.75,7.7,19.3,11.26,31.05,10.44c6.15-0.43,12.1-1.91,17.52-4.97c6.6-3.72,12.26-8.56,15.8-15.37c2.14-4.12,4.54-8.39,5.34-12.86
			c1.37-7.65,0.6-15.31-3.03-22.52c-3.43-6.81-7.66-12.67-14.16-17.03C229.85,154.06,221.91,151.68,213.05,150.92z"/>
		<path d="M166.41,27.57c-2.65,15.92-5.3,31.85-8,48.02c7.33,0,14.77,0,22.74,0c-12,22.28-23.77,44.13-35.54,65.97
			c-0.11-0.06-0.22-0.12-0.33-0.18c3.88-17.09,7.75-34.17,11.76-51.84c-7.97,0-15.43,0-23.67,0c10.97-20.98,21.72-41.56,32.48-62.14
			C166.04,27.46,166.23,27.51,166.41,27.57z"/>
	</g>
</g>
</svg>
