<?xml version="1.0" encoding="utf-8"?>
<!-- Generator: Adobe Illustrator 23.0.0, SVG Export Plug-In . SVG Version: 6.00 Build 0)  -->
<svg version="1.1" id="Capa_2" xmlns="http://www.w3.org/2000/svg" xmlns:xlink="http://www.w3.org/1999/xlink" x="0px" y="0px"
	 viewBox="0 0 300 300" style="enable-background:new 0 0 300 300;" xml:space="preserve">
<style type="text/css">
	.st0{fill:#0E0E0E;}
	.st1{fill:#FFFFFF;}
	.st2{fill:#FEFEFE;}
	.st3{fill:#FDFDFD;}
	.st4{fill:#FAFAFA;}
	.st5{fill:#EAEAEA;}
</style>
<g>
	<path class="st0" d="M88.73,114.14c0.31-4.55,3.38-5.13,6.92-5.46c8.36-0.79,16.7-1,24.97,0.66c1.89,0.38,2.54-0.06,2.61-1.89
		c0.03-0.81-0.26-1.9,0.82-2.27c1.16-0.4,1.79,0.63,2.31,1.33c1.76,2.34,3.84,2.91,6.54,1.73c0.82-0.36,1.97-0.77,2.69,0.12
		c0.77,0.95-0.12,1.85-0.61,2.59c-1.15,1.74-0.91,2.7,1.08,3.71c7,3.58,12.38,8.93,16.38,15.69c0.27,0.45,0.53,0.9,0.82,1.33
		c0.08,0.12,0.28,0.16,0.46,0.26c0.78-0.34,0.98-1.16,1.37-1.8c3.28-5.46,7.51-10.04,12.86-13.5c1.8-1.16,2.36-2.25,1.15-4.24
		c-0.71-1.18-2.24-2.63-1.23-3.97c1.05-1.37,2.87-0.24,4.11,0.25c2.46,0.97,3.43-0.83,4.82-2.02c0.75-0.64,1.29-1.94,2.52-1.45
		c1.18,0.48,0.96,1.84,0.93,2.79c-0.08,2.19,0.46,2.78,2.8,2.17c10.62-2.79,21.38-2.51,32.16-0.98c0.99,0.14,1.8,0.41,2.26,1.47
		c0.92,2.14,2.93,3.4,4.35,5.15c0.66,0.82,1.54,0.65,2.41,0.44c1.69-0.4,3.37-0.87,5.07-1.19c1.78-0.34,2.33,0.47,1.54,2.06
		c-0.81,1.64-1.73,3.22-2.63,4.81c-0.57,1-0.49,1.7,0.81,1.75c1.42,0.06,1.81,1.08,2.32,2.13c1.33,2.71,1.51,6.62,3.99,7.94
		c2.33,1.23,5.83,0.69,8.73,0.29c4.97-0.69,7.4,1.29,9.56,5.83c10.83,22.8,22.09,45.4,33.2,68.06c2.26,4.61,2.19,4.72-3.03,4.72
		c-39.48,0-78.96,0.01-118.44-0.02c-1.79,0-3.23,0.28-4.74,1.49c-4,3.21-10.09,3.14-14.06-0.13c-1.36-1.12-2.65-1.37-4.25-1.36
		c-39.92,0.02-79.83,0.02-119.75,0.02c-3.86,0-4.11-0.33-2.43-3.76c11.86-24.24,23.75-48.46,35.58-72.72
		c0.77-1.57,1.69-2.15,3.41-2.09c3.83,0.12,7.67,0.06,11.5,0.03c2.56-0.02,3.01-0.88,1.67-3.13c-0.56-0.95-0.14-1.75,0.43-2.38
		c3.34-3.68,3.07-7.32,0.1-11.05c-0.45-0.57-1-1.33-0.35-2.13c0.62-0.77,1.39-0.42,2.15-0.2c3.64,1.01,6.95,1.91,9.76-2.25
		C86.69,109.59,87.28,109.92,88.73,114.14z"/>
	<path class="st1" d="M67.38,180.06c5.6-15.52,11.02-30.56,16.41-45.51c0.97-0.34,1.15,0.46,1.59,0.79c1.32,1,2.41,0.58,2.3-0.93
		c-0.4-5.52,2.32-8.38,7.41-9.71c1.57-0.41,1.49-1.54,0.11-2.39c-0.52-0.32-1.13-0.48-1.63-0.82c-1.33-0.88-4-0.92-3.89-2.49
		c0.17-2.41,1.51-4.75,2.47-7.08c0.14-0.34,0.88-0.54,1.37-0.6c9.29-1.2,18.56-1.44,27.86,0.49c-0.29,1.2-1.47,1.14-2.16,1.68
		c-0.65,0.51-1.77,0.61-1.65,1.76c0.11,1.1,1.19,1.13,1.93,1.51c0.23,0.12,0.48,0.24,0.73,0.28c2.58,0.42,3.55,2.08,3.66,4.53
		c0.05,1.1-0.09,2.57,1.22,2.91c1.34,0.35,1.87-1.13,2.43-2c1.28-1.99,2.75-2.95,5.19-2.11c1.09,0.37,2.52,0.88,3.44-0.17
		c0.98-1.11-0.85-1.87-0.76-3.34c6.43,3.75,11.58,8.47,15.08,14.87c0.27,0.49,0.24,1.19,0.24,1.79c0.01,23.27,0.01,46.54,0,69.81
		c0,0.34-0.07,0.68-0.18,1.62C128.21,178.52,100.74,170.01,67.38,180.06z"/>
	<path class="st1" d="M157.2,204.61c-0.77-0.82-0.47-1.64-0.47-2.37c-0.02-22.74-0.01-45.48-0.04-68.22c0-1.46,0.34-2.7,1.14-3.91
		c1.36-2.04,3.07-3.8,4.46-5.78c2.66-3.79,6.64-3.89,10.57-4.24c1.77-0.15,2.07,1.62,3.03,2.52c0.78,0.72,1.11,2.24,2.54,1.83
		c1.31-0.37,0.91-1.75,1.05-2.71c0.32-2.11,0.61-4.03,3.28-4.6c1.13-0.24,2.92-0.36,3.04-1.98c0.11-1.44-1.78-1.41-2.7-2.56
		c5.74-1.79,11.5-2.12,17.26-2.23c4.35-0.08,8.69,0.38,13.02,0.85c1.53,0.17,2.25,0.77,1.87,2.35c-0.02,0.08-0.04,0.17-0.04,0.26
		c0.38,4.27-1.6,6.76-5.68,7.84c-0.92,0.24-2.26,0.58-2.24,1.87c0.02,1.31,1.42,1.53,2.33,1.74c4.26,1.03,6.18,3.59,5.88,7.97
		c-0.06,0.87-0.07,2.1,0.98,2.51c1.29,0.5,1.77-0.8,2.46-1.5c1.02-1.05,1.95-2.18,3.26-3.65c5.96,16.62,11.78,32.85,17.74,49.44
		C206.67,170.04,179.27,178.52,157.2,204.61z"/>
	<path class="st2" d="M167.67,210.35c3.63-1.42,7.53-1.77,11.37-2.31c19.8-2.76,39.7-3.75,59.68-3.08
		c9.57,0.32,19.13,1.03,28.65,2.12c3.14,0.36,3.48-0.02,2.27-2.97c-8.89-21.75-17.75-43.51-26.74-65.22
		c-0.97-2.35-0.48-2.47,1.78-2.65c3.33-0.26,4.99,0.83,6.48,3.94c10.86,22.6,21.96,45.08,32.98,67.59c1.25,2.54,1.24,2.57-1.71,2.57
		C244.18,210.35,205.92,210.35,167.67,210.35z"/>
	<path class="st1" d="M144.96,203.01c-31.61-17.81-63.67-19.49-96.89-5.4c2.53-5.97,4.91-11.63,7.31-17.29
		c6.64-15.62,13.32-31.22,19.9-46.86c0.77-1.83,1.61-3.09,3.79-3.29c2.48-0.23,3.49,0.96,2.59,3.51c-2.34,6.56-4.72,13.1-7.09,19.65
		c-3.22,8.92-6.47,17.83-9.64,26.76c-0.31,0.87-1.26,1.92-0.17,2.87c0.92,0.8,1.83-0.04,2.68-0.32
		c28.43-9.38,53.52-4.07,75.05,16.98C143.34,200.44,144.36,201.18,144.96,203.01z"/>
	<path class="st2" d="M139.96,209.9c-38.41,0-76.58,0-114.75,0c-3.15,0-3.16,0-1.76-2.87c11.02-22.53,22.09-45.02,32.97-67.61
		c1.34-2.79,2.88-4.05,5.9-3.55c0.84,0.14,1.73,0.02,2.8,0.02c-0.67,3.18-2.13,5.86-3.26,8.64c-8,19.67-16.07,39.31-24.11,58.97
		c-1.26,3.08-0.95,3.45,2.34,3.1c22.05-2.37,44.13-2.99,66.27-1.3c10.51,0.8,20.96,2.01,31.35,3.75
		C138.49,209.18,139.27,209.21,139.96,209.9z"/>
	<path class="st1" d="M162.41,202.77c18.71-22.11,47.91-30.04,75.58-20.8c0.74,0.25,1.46,0.61,2.21,0.77
		c0.8,0.17,1.61,0.99,2.44,0.2c0.94-0.9,0.11-1.82-0.17-2.64c-1.38-4.03-2.86-8.03-4.3-12.04c-4.18-11.62-8.38-23.23-12.52-34.87
		c-0.3-0.83-1.2-1.83-0.51-2.62c0.58-0.66,1.64,0.15,2.47,0.12c3.02-0.1,4.19,1.62,5.28,4.22c8.36,19.99,16.9,39.9,25.38,59.84
		c0.33,0.77,0.61,1.57,1.01,2.64C225.98,183.21,193.78,184.83,162.41,202.77z"/>
	<path class="st1" d="M39.98,204.76c2.12-5.23,4.09-10.12,6.08-15.01c6.65-16.27,13.3-32.55,19.98-48.81
		c0.28-0.69,0.28-1.64,1.12-1.97c0.91-0.35,2.05-0.46,2.75,0.12c0.7,0.57-0.11,1.42-0.4,2.09c-8.05,18.99-16.12,37.98-24.16,56.97
		c-0.41,0.97-1.57,2.02-0.52,3.07c1.09,1.09,2.08-0.21,3.02-0.63c34.11-15.48,67.03-13.6,98.71,6.7c0.44,0.28,0.86,0.59,1.27,0.92
		c0.12,0.09,0.15,0.29,0.42,0.87C112.37,201.95,76.47,200.85,39.98,204.76z"/>
	<path class="st1" d="M159.35,208.87c0.09-0.88,0.87-1.09,1.4-1.46c13.24-9.36,28.05-14.5,44.08-16.21
		c19.52-2.08,38.17,0.88,55.74,9.9c0.66,0.34,1.4,0.93,2.12,0.12c0.78-0.87,0.04-1.67-0.27-2.41
		c-6.55-15.46-13.14-30.91-19.71-46.36c-1.6-3.76-3.22-7.52-4.77-11.3c-0.28-0.69-1.37-1.7-0.17-2.18c1.08-0.43,2.53-0.69,3.23,1.1
		c1.76,4.54,3.65,9.03,5.5,13.54c6.65,16.27,13.28,32.54,19.99,48.79c0.81,1.97,0.68,2.44-1.63,2.18
		c-18.82-2.16-37.7-2.51-56.6-1.58c-16.19,0.79-32.24,2.74-48.13,5.96C159.88,209,159.62,208.9,159.35,208.87z"/>
	<path class="st3" d="M217.35,131.88c0.93-5.09-1.71-7.27-6.02-8.46c4.33-1.22,6.83-3.54,6.1-8.53c2.71,3.58,5.73,5.1,10.08,2.96
		c-2.55,3.7-2.8,7.05,0.88,10.6c-2.71-0.32-4.62-0.95-6.36-0.64C220.16,128.15,219.65,130.66,217.35,131.88z"/>
	<path class="st3" d="M92.05,123.42c-4.58,1.07-6.75,3.62-6.13,8.39c-2.11-1.13-2.68-3.36-4.4-4.02c-1.8-0.68-3.66,0.77-5.74,0.48
		c0.9-1.79,2.35-3.45,2.41-5.16c0.05-1.59-1.39-3.23-2.46-5.44c4.26,1.75,7.67,1.5,10.02-3.03
		C85.48,119.5,87.38,122.33,92.05,123.42z"/>
	<rect x="153.08" y="136.9" class="st1" width="1" height="72"/>
	<path class="st4" d="M182.21,114.63c-3.95,2.1-3.95,2.1-5.08,5.78c-1.45-2.61-3.45-3.53-6.37-2.4c1.93-2.37,2.22-4.61,0.23-7.04
		c2.74,0.74,5.04,0.74,6.85-1.95C178,111.77,178.43,114.13,182.21,114.63z"/>
	<path class="st4" d="M125.56,109.19c1.87,2.29,3.96,2.72,6.73,1.71c-1.6,2.49-1.85,4.77,0.43,7.06c-2.86-0.9-5.04-0.47-6.32,2.44
		c-1.62-3.9-1.62-3.9-4.91-5.56C124.42,114,125.63,112.13,125.56,109.19z"/>
	<path class="st5" d="M159.22,211.57c-2.79,3.39-7.71,3.44-11.26,0.14C151.71,212.31,155.46,212.93,159.22,211.57z"/>
	<path class="st1" d="M64.05,104.13c-0.25-1.2-1.59-1.12-2.58-1.36c-2.79-0.66-5.55-1.46-8.37-1.95c-1.63-0.28-2.38-1.05-2.81-2.56
		c-0.84-3.01-1.8-5.99-2.74-8.97c-0.23-0.72-0.37-1.61-1.38-1.67c-0.84-0.05-1.16,0.64-1.52,1.24c-0.9,1.49-1.97,2.9-2.66,4.48
		c-1.93,4.36-4.7,6.99-9.16,5.36c-2.24,0-3.81,0-5.37,0c-0.86,0-1.89-0.17-2.37,0.71c-0.51,0.95,0.35,1.61,0.9,2.26
		c1.86,2.19,3.68,4.41,5.66,6.49c1.28,1.35,1.69,2.6,0.94,4.42c-1.02,2.48-1.77,5.08-2.54,7.66c-0.3,1.01-1.3,2.17-0.22,3.13
		c0.97,0.86,1.95-0.17,2.87-0.54c2.58-1.04,5.18-2.06,7.67-3.28c1.56-0.76,2.71-0.55,4.03,0.49c2.45,1.94,5.02,3.74,7.54,5.6
		c0.56,0.41,1.13,0.92,1.89,0.57c0.83-0.38,0.61-1.18,0.57-1.84c-0.22-3.12-0.31-6.27-0.79-9.36c-0.3-1.87,0.29-2.88,1.76-3.85
		c2.33-1.52,4.57-3.18,6.8-4.84C62.94,105.76,64.31,105.38,64.05,104.13z M52.6,110.38c-1.15,0.79-1.5,1.71-1.45,3.06
		c0.11,2.91,0.89,5.78,0.46,9.11c-2.39-1.76-4.59-3.27-6.67-4.93c-1.44-1.15-2.72-1.47-4.49-0.57c-2.38,1.22-4.93,2.11-7.76,3.29
		c0.4-3.1,1.58-5.66,2.48-8.27c0.6-1.73,0.39-2.94-0.81-4.24c-1.82-1.97-3.53-4.05-5.73-6.61c3.23,0,5.94-0.11,8.64,0.04
		c1.9,0.1,3.07-0.55,3.98-2.21c1.31-2.42,2.82-4.73,4.52-7.55c1.05,3.29,2.02,5.97,2.74,8.73c0.42,1.6,1.32,2.26,2.83,2.58
		c2.76,0.58,5.5,1.27,8.85,2.05C57.33,106.95,55.01,108.73,52.6,110.38z"/>
	<path class="st1" d="M277.37,101.76c0.53-0.63,1.5-1.21,1.05-2.2c-0.48-1.06-1.6-0.84-2.54-0.84c-2.87,0.02-5.76-0.1-8.61,0.15
		c-1.99,0.17-3-0.64-3.88-2.25c-1.47-2.66-3.11-5.23-4.69-7.83c-0.36-0.59-0.67-1.26-1.55-1.17c-0.9,0.1-1.03,0.88-1.23,1.5
		c-0.99,3.06-1.99,6.11-2.86,9.2c-0.4,1.4-1.04,2.18-2.58,2.46c-2.9,0.53-5.76,1.3-8.63,2c-0.9,0.22-2.09,0.13-2.4,1.22
		c-0.38,1.34,0.95,1.72,1.73,2.3c2.36,1.78,4.72,3.57,7.21,5.16c1.31,0.84,1.65,1.79,1.49,3.23c-0.36,3.11-0.61,6.23-0.93,9.58
		c0.07,0.51-0.31,1.39,0.56,1.9c0.86,0.5,1.48-0.16,2.09-0.61c2.6-1.89,5.22-3.76,7.77-5.73c1.1-0.85,2.04-0.98,3.33-0.38
		c2.91,1.36,5.9,2.55,8.87,3.8c0.71,0.3,1.47,0.79,2.15,0.04c0.54-0.6,0.24-1.29,0.02-1.96c-1.04-3.13-1.98-6.3-3.1-9.4
		c-0.45-1.24-0.26-2.12,0.59-3.07C273.32,106.53,275.35,104.15,277.37,101.76z M268.23,112.18c0.98,2.48,1.72,5.06,2.68,7.98
		c-3.11-0.72-5.61-2.04-8.15-3.2c-1.55-0.71-2.72-0.61-4.05,0.46c-2.16,1.73-4.44,3.31-7.26,5.38c0.26-3.58,0.43-6.52,0.71-9.44
		c0.13-1.37-0.3-2.26-1.46-3.04c-2.37-1.59-4.63-3.34-7.28-5.27c2.96-1.24,5.76-1.59,8.46-2.22c1.57-0.37,2.58-0.96,3.01-2.71
		c0.66-2.69,1.64-5.3,2.71-8.64c1.67,2.78,3.14,5.05,4.42,7.43c0.94,1.74,2.14,2.49,4.17,2.34c2.59-0.18,5.2-0.04,8.5-0.04
		c-2.08,2.44-3.73,4.58-5.61,6.52C267.77,109.12,267.54,110.41,268.23,112.18z"/>
	<path class="st1" d="M236.82,68.26c-2.1-1.83-4.11-3.77-6.32-5.45c-1.43-1.08-1.61-2.24-1.26-3.83c0.58-2.63,1-5.29,1.45-7.73
		c0-0.89,0.28-1.71-0.36-2.15c-0.76-0.52-1.5,0.07-2.16,0.46c-2.32,1.36-4.7,2.66-6.92,4.17c-1.45,0.99-2.58,0.89-4.03,0.02
		c-2.22-1.35-4.58-2.48-6.89-3.71c-0.69-0.36-1.39-0.9-2.17-0.35c-0.81,0.57-0.45,1.37-0.26,2.14c0.58,2.36,1.04,4.75,1.7,7.09
		c0.57,2.01,0.45,3.56-1.42,4.98c-1.86,1.4-3.43,3.2-5.1,4.85c-0.6,0.59-1.55,1.11-1.22,2.12c0.37,1.16,1.55,0.95,2.44,1.04
		c2.51,0.25,5.02,0.53,7.54,0.56c1.67,0.01,2.49,0.73,3.12,2.15c1.01,2.3,2.15,4.56,3.29,6.8c0.41,0.8,0.58,2,1.77,2.02
		c1.26,0.02,1.32-1.19,1.69-2.03c0.83-1.91,1.87-3.78,2.39-5.78c0.72-2.78,2.44-3.62,5.08-3.75c2.25-0.1,4.47-0.62,6.71-0.93
		c0.77-0.11,1.65-0.02,1.9-1C237.99,69.14,237.34,68.71,236.82,68.26z M226.88,69.85c-2.11,0.18-3.51,0.94-4.18,3.14
		c-0.62,2.06-1.64,4-2.72,6.54c-1.33-2.66-2.51-4.82-3.49-7.06c-0.64-1.46-1.51-2.12-3.15-2.15c-2.34-0.05-4.68-0.39-7.32-0.63
		c0.94-2.05,2.67-3.26,4.18-4.52c1.98-1.66,2.7-3.36,1.78-5.9c-0.67-1.85-0.88-3.86-1.44-6.48c2.68,1.43,4.85,2.53,6.95,3.74
		c1.25,0.72,2.29,0.84,3.58-0.03c2.08-1.4,4.31-2.58,6.75-4.01c0.13,2.89-0.72,5.34-1.15,7.83c-0.24,1.41,0.03,2.28,1.11,3.16
		c1.95,1.58,3.79,3.28,6.18,5.38C231.23,69.25,229.06,69.66,226.88,69.85z"/>
	<path class="st1" d="M100.63,69.07c-1.93-1.88-3.78-3.87-5.85-5.61c-1.37-1.15-1.5-2.36-1.11-3.91c0.7-2.78,1.32-5.58,1.98-8.38
		c0.11-1.67-0.62-2.12-2.29-1.28c-2.64,1.33-5.26,2.72-7.83,4.17c-1.04,0.59-1.83,0.61-2.87-0.06c-2.26-1.47-4.6-2.81-6.93-4.17
		c-0.8-0.47-1.68-1.37-2.61-0.76c-1.05,0.69-0.47,1.91-0.31,2.88c0.41,2.49,0.86,4.97,1.39,7.44c0.31,1.43-0.01,2.44-1.21,3.39
		c-2.18,1.73-4.23,3.64-6.33,5.47c-0.53,0.47-1.06,0.93-0.86,1.76c0.22,0.92,1,0.83,1.67,0.93c2.5,0.36,4.99,0.8,7.5,1.03
		c2,0.18,3.36,0.76,4.01,2.92c0.7,2.32,1.84,4.51,2.8,6.75c0.33,0.77,0.39,1.83,1.55,1.82c1.13-0.01,1.25-1.08,1.63-1.82
		c1.12-2.17,2.3-4.32,3.21-6.57c0.75-1.85,1.78-2.69,3.88-2.66c2.51,0.04,5.03-0.34,7.55-0.58c0.75-0.07,1.65-0.04,1.91-1.02
		C101.75,70,101.13,69.55,100.63,69.07z M90.44,70.28c-2-0.01-2.98,0.85-3.72,2.56c-0.92,2.13-2.05,4.17-3.29,6.67
		C82.35,77,81.29,75,80.65,72.87c-0.64-2.13-1.99-2.82-4-3c-2.15-0.19-4.28-0.56-7.23-0.96c2.37-2.07,4.13-3.72,6.02-5.23
		c1.25-1,1.62-2.07,1.25-3.63c-0.55-2.35-0.89-4.76-1.38-7.42c2.66,0.89,4.65,2.41,6.72,3.72c1.46,0.93,2.59,0.94,4.04,0.06
		c1.99-1.21,4.11-2.21,6.43-3.44c0.04,2.76-0.76,5.05-1.36,7.35c-0.42,1.62-0.15,2.79,1.13,3.93c1.8,1.58,3.44,3.35,5.48,5.36
		C95.02,69.89,92.72,70.3,90.44,70.28z"/>
	<path class="st2" d="M203.7,93.01c-1.19-1.01-2.35-2.07-3.61-2.99c-1.57-1.15-2.25-2.4-1.54-4.42c0.54-1.53,0.59-3.24,0.9-5.11
		c-0.22-2.07-1.64-1.5-2.64-0.62c-3.85,3.4-7.67,3.68-11.7,0.37c-0.58-0.47-1.4-0.96-2.16-0.46c-0.92,0.61-0.59,1.64-0.28,2.38
		c1.9,4.47,1.28,8.12-3.09,10.79c-0.78,0.48-1.7,1.19-1.25,2.32c0.4,1.01,1.48,0.83,2.3,0.79c4.65-0.25,7.99,1.32,9.12,6.21
		c0.08,0.33,0.27,0.64,0.44,0.94c0.83,1.5,1.7,1.72,2.56,0.03c0.28-0.54,0.58-1.09,0.71-1.68c0.87-3.83,2.89-6.15,7.17-5.77
		c0.76,0.07,1.54-0.22,2.32-0.3c0.65-0.06,1.22-0.24,1.43-0.91C204.59,93.91,204.18,93.42,203.7,93.01z M191.85,100.13
		c-2-1.61-1.8-4.39-3.56-5.27c-1.68-0.84-3.84-0.71-6.69-1.15c4.69-2.56,5.86-5.93,3.76-10.57c3.92,2.8,7.52,3.43,11.22-0.5
		c-1.48,4.69-1.17,8.34,3.85,10.7C195.28,93.07,192.54,95.2,191.85,100.13z"/>
	<path class="st3" d="M124.37,93.46c-1.06-1.03-2.04-2.18-3.24-3.03c-1.7-1.22-1.94-2.65-1.34-4.51c0.48-1.48,0.76-3.03,1.01-4.07
		c0.2-2.13-0.65-2.85-1.92-1.87c-4.38,3.37-8.52,3.5-12.65-0.35c-0.45-0.42-1.1-0.61-1.7-0.3c-0.81,0.41-0.71,1.26-0.48,1.84
		c2.03,5.11,0.7,9.01-4.06,11.76c-0.64,0.37-1.03,1-0.78,1.77c0.27,0.83,1.04,0.89,1.74,0.84c5.26-0.32,8.44,2,9.48,7.23
		c0.14,0.7,0.45,1.61,1.47,1.58c0.98-0.02,1.33-0.88,1.51-1.59c1.32-5.16,4.71-7.21,9.86-6.71c0.09,0.01,0.17-0.01,0.26-0.01
		c0.64-0.01,1.25-0.12,1.53-0.77C125.4,94.47,124.87,93.95,124.37,93.46z M112.45,99.82c-0.83-0.07-1-0.48-1.11-0.89
		c-0.9-3.32-2.59-5.6-6.5-5.16c-0.45,0.05-1.12,0.03-1.23-0.65c-0.09-0.51,0.44-0.69,0.74-0.98c0.13-0.12,0.24-0.26,0.39-0.35
		c2.91-1.65,3.48-4.08,2.24-7.01c-0.66-1.57,0.61-1.69,1.15-1.19c3.33,3.07,6.43,1.76,9.85-0.39c-1.95,4.5-0.92,7.83,3.24,10.52
		C116.47,93.62,113.13,95.07,112.45,99.82z"/>
</g>
</svg>
